<svg version="1.1" viewBox="0.0 0.0 697.8530183727034 699.2020997375328" fill="none" stroke="none" stroke-linecap="square" stroke-miterlimit="10" xmlns:xlink="http://www.w3.org/1999/xlink" xmlns="http://www.w3.org/2000/svg"><clipPath id="p.0"><path d="m0 0l697.853 0l0 699.2021l-697.853 0l0 -699.2021z" clip-rule="nonzero"/></clipPath><g clip-path="url(#p.0)"><path fill="#000000" fill-opacity="0.0" d="m0 0l697.853 0l0 699.2021l-697.853 0z" fill-rule="evenodd"/><path fill="#000000" d="m51.47769 349.60104l0 0c0 -164.75479 133.56015 -298.31494 298.31497 -298.31494l0 0c79.11804 0 154.9956 31.429523 210.94049 87.374435c55.944946 55.9449 87.37445 131.82248 87.37445 210.94052l0 0c0 164.75479 -133.56018 298.31497 -298.31494 298.31497l0 0c-164.75482 0 -298.31497 -133.56018 -298.31497 -298.31497z" fill-rule="evenodd"/><path stroke="#ffffff" stroke-width="16.0" stroke-linejoin="round" stroke-linecap="butt" d="m51.47769 349.60104l0 0c0 -164.75479 133.56015 -298.31494 298.31497 -298.31494l0 0c79.11804 0 154.9956 31.429523 210.94049 87.374435c55.944946 55.9449 87.37445 131.82248 87.37445 210.94052l0 0c0 164.75479 -133.56018 298.31497 -298.31494 298.31497l0 0c-164.75482 0 -298.31497 -133.56018 -298.31497 -298.31497z" fill-rule="evenodd"/><path fill="#ffffff" d="m467.57217 312.19815l0 104.944885l0 0c0 57.959473 -55.298126 104.944916 -123.51181 104.944916c-68.213684 0 -123.51181 -46.985443 -123.51181 -104.944916l0 -104.944885z" fill-rule="evenodd"/><path fill="#ffffff" d="m440.97882 319.71655l0 0c61.452515 1.9847107 109.262695 35.552307 107.739746 75.64426c-1.5229492 40.09195 -51.82321 72.0762 -113.351105 72.0762l0 -36.95276c41.66559 0 75.65491 -16.133575 76.420166 -36.274048c0.7652893 -20.140472 -31.975464 -36.8667 -73.612946 -37.606537z" fill-rule="evenodd"/><path fill="#ffffff" d="m149.09973 482.37927l0 0c0 -26.84018 87.67464 -48.59842 195.82678 -48.59842l0 0c108.15213 0 195.82678 21.75824 195.82678 48.59842l0 0c0 26.840149 -87.67465 48.59839 -195.82678 48.59839l0 0c-108.152145 0 -195.82678 -21.75824 -195.82678 -48.59839z" fill-rule="evenodd"/><path fill="#000000" fill-opacity="0.0" d="m260.87927 121.67979l177.82675 0l0 174.51968l-177.82675 0z" fill-rule="evenodd"/><path fill="#ffffff" d="m273.56677 227.5598l10.9375 -1.5q0.4375 10.5 3.9375 14.375q3.5 3.875 9.6875 3.875q4.5625 0 7.875 -2.09375q3.3125 -2.09375 4.5625 -5.6875q1.25 -3.59375 1.25 -11.46875l0 -63.125l12.125 0l0 62.4375q0 11.5 -2.78125 17.8125q-2.78125 6.3125 -8.8125 9.625q-6.03125 3.3125 -14.15625 3.3125q-12.0625 0 -18.46875 -6.9375q-6.40625 -6.9375 -6.15625 -20.625zm66.0625 -3.4375l11.4375 -1.0q0.8125 6.875 3.78125 11.28125q2.96875 4.40625 9.21875 7.125q6.25 2.71875 14.0625 2.71875q6.9375 0 12.25 -2.0625q5.3125 -2.0625 7.90625 -5.65625q2.59375 -3.59375 2.59375 -7.84375q0 -4.3125 -2.5 -7.53125q-2.5 -3.21875 -8.25 -5.40625q-3.6875 -1.4375 -16.3125 -4.46875q-12.625 -3.03125 -17.6875 -5.71875q-6.5625 -3.4375 -9.78125 -8.53125q-3.21875 -5.09375 -3.21875 -11.40625q0 -6.9375 3.9375 -12.96875q3.9375 -6.03125 11.5 -9.15625q7.5625 -3.125 16.8125 -3.125q10.1875 0 17.96875 3.28125q7.78125 3.28125 11.96875 9.65625q4.1875 6.375 4.5 14.4375l-11.625 0.875q-0.9375 -8.6875 -6.34375 -13.125q-5.40625 -4.4375 -15.96875 -4.4375q-11.0 0 -16.03125 4.03125q-5.03125 4.03125 -5.03125 9.71875q0 4.9375 3.5625 8.125q3.5 3.1875 18.28125 6.53125q14.78125 3.34375 20.28125 5.84375q8.0 3.6875 11.8125 9.34375q3.8125 5.65625 3.8125 13.03125q0 7.3125 -4.1875 13.78125q-4.1875 6.46875 -12.03125 10.0625q-7.84375 3.59375 -17.65625 3.59375q-12.4375 0 -20.84375 -3.625q-8.40625 -3.625 -13.1875 -10.90625q-4.78125 -7.28125 -5.03125 -16.46875z" fill-rule="nonzero"/></g></svg>